<svg width="1920" height="550" xmlns="http://www.w3.org/2000/svg">
 <style type="text/css">.st0{fill:#FFFFFF;}
	.st1{fill:none;}</style>

 <g>
  <title>background</title>
  <rect fill="none" id="canvas_background" height="552" width="1922" y="-1" x="-1"/>
 </g>
 <g>
  <title>Layer 1</title>
  <path id="svg_1" d="m1942.084725,59.426158l-23.999333,104.064016l-15.999723,388.050192l-1916.000195,1.999893l0,-27.9c-112.430581,-48.537221 75.291835,-85.92507 162.954116,-87.647279c87.662281,-1.722209 171.898243,20.095493 282.649199,-19.653155c110.750955,-39.748648 211.026491,-94.847192 375.737311,-99.010217c164.710819,-4.163026 225.86124,44.609998 368.36054,36.609765c142.4993,-8.000233 176.201835,-94.304825 220.099923,-140.404781c43.898088,-46.099956 115.748109,-115.452144 200.122196,-143.465597c84.374087,-28.013453 226.074768,-62.891183 346.075966,-12.642838z" class="st0"/>
  <rect id="svg_2" height="137.6" width="1920" class="st1" y="-829.4" x="-1036"/>
  <rect id="svg_3" height="380" width="2446" class="st1" y="-829.4" x="-1136"/>
  <rect stroke="null" id="svg_4" height="581.971659" width="67.996612" y="90.890043" x="1874.955507" stroke-opacity="null" stroke-width="null" fill="#ffffff"/>
 </g>
</svg>