<svg width="800" height="1920.0000000000002" xmlns="http://www.w3.org/2000/svg">
 <style type="text/css">.st0{fill:#FFFFFF;}
	.st1{fill:none;}</style>

 <g>
  <title>background</title>
  <rect x="-1" y="-1" width="802" height="1922" id="canvas_background" fill="none"/>
 </g>
 <g>
  <title>Layer 1</title>
  <path class="st0" d="m1400.06363,581.45002l-20.00003,780.10019l-1920,-0.00001l0,-27.9c-112.43058,-48.53722 75.29184,-85.92507 162.95412,-87.64728c87.66228,-1.72221 171.89824,20.09549 282.6492,-19.65316c110.75095,-39.74865 211.02649,-94.84719 375.73731,-99.01021c164.71082,-4.16303 225.86124,44.60999 368.36054,36.60976c142.4993,-8.00023 238.19882,-196.29986 256.09817,-250.39943c17.89935,-54.09956 73.75015,-155.45021 130.1256,-211.46228c56.37545,-56.01209 220.07506,-136.88758 364.07509,-120.63758z" id="svg_1" transform="rotate(-90 412.6217651367188,970.441650390625) "/>
  <rect x="-1036" y="-829.4" class="st1" width="1920" height="137.6" id="svg_2"/>
  <rect x="-1136" y="-829.4" class="st1" width="2446" height="380" id="svg_3"/>
  <rect stroke="#000" id="svg_4" height="48.000838" width="748.013098" y="-2.266824" x="73.994209" stroke-width="0" fill="#fff"/>
 </g>
</svg>